<svg xmlns="http://www.w3.org/2000/svg" class="thumb" viewBox="0 0 500 169" width="500" height="169" xmlns:xlink="http://www.w3.org/1999/xlink" xmlns:inkscape="http://www.inkscape.org/namespaces/inkscape" xmlns:sodipodi="http://sodipodi.sourceforge.net/DTD/sodipodi-0.dtd" xmlns:ns1="http://www.inkscape.org/namespaces/inkscape" xmlns:sketch="http://www.bohemiancoding.com/sketch/ns"><defs /><g><g transform="matrix(1.0808, 0, 0, 1.0808, 45.226, 41.962)"><svg viewBox="6 0 88.4503 100" width="88.4503" height="100"><defs><linearGradient id="linearGradientSkir4pr0q5mi" x1="0" y1="0.5" x2="1" y2="0.5"><stop stop-color="rgb(67, 207, 217)" offset="0%" /><stop stop-color="rgb(116, 209, 76)" offset="100%" /></linearGradient></defs><g><path fill="url(#linearGradientSkir4pr0q5mi)" fill-rule="evenodd" d="M 84.9793 79.8512 C 84.9793 85.7395 80.1898 90.529 74.3015 90.529 L 31.4559 90.529 L 27.4287 86.5956 L 27.8925 86.5956 L 69.0257 86.5956 C 75.6528 86.5956 81.0448 81.2025 81.0448 74.5754 L 81.0448 24.954 L 82.3917 24.954 C 83.818 24.954 84.9793 26.1154 84.9793 27.5428 L 84.9793 79.8512 Z M 18.3369 78.3981 L 65.7898 78.3981 C 69.6818 78.3981 72.8484 75.2315 72.8484 71.3395 L 72.8484 17.6674 L 73.9874 17.6674 C 75.4136 17.6674 76.5738 18.8288 76.5738 20.255 L 76.5738 74.5754 C 76.5738 78.7379 73.1871 82.1247 69.0257 82.1247 L 23.0527 82.1247 L 18.3369 78.3981 Z M 15.471 9.47099 L 65.7898 9.47099 C 67.216 9.47099 68.3774 10.6312 68.3774 12.0586 L 68.3774 71.3395 C 68.3774 72.7669 67.216 73.9271 65.7898 73.9271 L 15.471 73.9271 L 15.471 9.47099 Z M 82.3917 20.4831 L 81.0448 20.4831 L 81.0448 20.255 C 81.0448 16.363 77.8783 13.1965 73.9874 13.1965 L 72.8484 13.1965 L 72.8484 12.0586 C 72.8484 8.16658 69.6818 5 65.7898 5 L 11 5 L 11 78.3981 L 29.9045 95 L 74.3015 95 C 82.6544 95 89.4503 88.2041 89.4503 79.8512 L 89.4503 27.5428 C 89.4503 23.6496 86.2837 20.4831 82.3917 20.4831 L 82.3917 20.4831 Z" sketch:type="MSShapeGroup" /></g></svg></g><g transform="matrix(0.5, 0, 0, 0.5, 132.723, 0.5)"><svg style="overflow: visible;" width="161.714" height="314"><defs><linearGradient id="linearGradientSkir4pr0q5mq" x1="0" y1="0.5" x2="1" y2="0.5"><stop stop-color="rgb(58, 58, 58)" offset="0%" /><stop stop-color="rgb(58, 58, 58)" offset="100%" /></linearGradient></defs><g><path fill="url(#linearGradientSkir4pr0q5mq)" transform="translate(283 190.5)" d="M -52.3 0 L -52.3 0 L -67.2 0 Q -69.1 0 -69.95 -0.85 Q -70.8 -1.7 -70.8 -3.6 L -70.8 -3.6 L -70.8 -68.4 Q -70.8 -70.3 -69.95 -71.15 Q -69.1 -72 -67.2 -72 L -67.2 -72 L -51.1 -72 Q -49.5 -72 -48.45 -71.3 Q -47.4 -70.6 -46.5 -69 L -46.5 -69 L -37.5 -52.7 Q -37 -51.8 -36.65 -51.4 Q -36.3 -51 -35.7 -51 L -35.7 -51 L -34.8 -51 Q -34.2 -51 -33.85 -51.4 Q -33.5 -51.8 -33 -52.7 L -33 -52.7 L -24.1 -69 Q -23.2 -70.6 -22.15 -71.3 Q -21.1 -72 -19.5 -72 L -19.5 -72 L -3.3 -72 Q -1.4 -72 -0.55 -71.15 Q 0.3 -70.3 0.3 -68.4 L 0.3 -68.4 L 0.3 -3.6 Q 0.3 -1.7 -0.55 -0.85 Q -1.4 0 -3.3 0 L -3.3 0 L -18.7 0 Q -20.6 0 -21.45 -0.85 Q -22.3 -1.7 -22.3 -3.6 L -22.3 -3.6 L -22.3 -38.8 L -28.2 -27.9 Q -29.1 -26.2 -30.35 -25.45 Q -31.6 -24.7 -33.5 -24.7 L -33.5 -24.7 L -37.5 -24.7 Q -39.4 -24.7 -40.65 -25.45 Q -41.9 -26.2 -42.8 -27.9 L -42.8 -27.9 L -48.7 -38.8 L -48.7 -3.6 Q -48.7 -1.7 -49.55 -0.85 Q -50.4 0 -52.3 0 Z M 50.6 0 L 50.6 0 L 34.4 0 Q 32.5 0 31.65 -0.85 Q 30.8 -1.7 30.8 -3.6 L 30.8 -3.6 L 30.8 -16.4 L 15.5 -36.9 Q 13.2 -40 12.45 -42.3 Q 11.7 -44.6 11.7 -49.2 L 11.7 -49.2 L 11.7 -68.4 Q 11.7 -70.3 12.55 -71.15 Q 13.4 -72 15.3 -72 L 15.3 -72 L 30.7 -72 Q 32.6 -72 33.45 -71.15 Q 34.3 -70.3 34.3 -68.4 L 34.3 -68.4 L 34.3 -52 Q 34.3 -51 34.4 -49.9 Q 34.5 -48.8 35.2 -47.8 L 35.2 -47.8 L 39.8 -40.6 Q 40.3 -39.7 40.85 -39.3 Q 41.4 -38.9 42.2 -38.9 L 42.2 -38.9 L 43.2 -38.9 Q 44 -38.9 44.55 -39.3 Q 45.1 -39.7 45.6 -40.6 L 45.6 -40.6 L 50.2 -47.8 Q 50.9 -48.8 51 -49.9 Q 51.1 -51 51.1 -52 L 51.1 -52 L 51.1 -68.4 Q 51.1 -70.3 51.95 -71.15 Q 52.8 -72 54.7 -72 L 54.7 -72 L 69.6 -72 Q 71.5 -72 72.35 -71.15 Q 73.2 -70.3 73.2 -68.4 L 73.2 -68.4 L 73.2 -49.2 Q 73.2 -44.6 72.4 -42.3 Q 71.6 -40 69.4 -36.9 L 69.4 -36.9 L 54.2 -16.3 L 54.2 -3.6 Q 54.2 -1.7 53.35 -0.85 Q 52.5 0 50.6 0 Z" data-textpath="my" data-text-anchor="middle" data-font-size="100" data-letterspacing="0" data-side="left" data-offset="0" data-dx="0" data-dy="190.5" data-xmlspace="preserve" data-href="" data-font="Bungee" data-font-src="/Content/clientfonts/bungee.woff" data-font-scale="contain" data-x="283" data-y="0" /></g></svg></g><g transform="matrix(0.5, 0, 0, 0.5, 132.648, 42.5)"><svg style="overflow: visible;" width="805.5" height="314"><defs><linearGradient id="linearGradientSkir4pr0q5mx" x1="0" y1="0.5" x2="1" y2="0.5"><stop stop-color="rgb(58, 58, 58)" offset="0%" /><stop stop-color="rgb(58, 58, 58)" offset="100%" /></linearGradient></defs><g><path fill="url(#linearGradientSkir4pr0q5mx)" transform="translate(179 190.5)" d="M -283.2 0 L -283.2 0 L -298.1 0 Q -300 0 -300.85 -0.85 Q -301.7 -1.7 -301.7 -3.6 L -301.7 -3.6 L -301.7 -68.4 Q -301.7 -70.3 -300.85 -71.15 Q -300 -72 -298.1 -72 L -298.1 -72 L -282 -72 Q -280.4 -72 -279.35 -71.3 Q -278.3 -70.6 -277.4 -69 L -277.4 -69 L -268.4 -52.7 Q -267.9 -51.8 -267.55 -51.4 Q -267.2 -51 -266.6 -51 L -266.6 -51 L -265.7 -51 Q -265.1 -51 -264.75 -51.4 Q -264.4 -51.8 -263.9 -52.7 L -263.9 -52.7 L -255 -69 Q -254.1 -70.6 -253.05 -71.3 Q -252 -72 -250.4 -72 L -250.4 -72 L -234.2 -72 Q -232.3 -72 -231.45 -71.15 Q -230.6 -70.3 -230.6 -68.4 L -230.6 -68.4 L -230.6 -3.6 Q -230.6 -1.7 -231.45 -0.85 Q -232.3 0 -234.2 0 L -234.2 0 L -249.6 0 Q -251.5 0 -252.35 -0.85 Q -253.2 -1.7 -253.2 -3.6 L -253.2 -3.6 L -253.2 -38.8 L -259.1 -27.9 Q -260 -26.2 -261.25 -25.45 Q -262.5 -24.7 -264.4 -24.7 L -264.4 -24.7 L -268.4 -24.7 Q -270.3 -24.7 -271.55 -25.45 Q -272.8 -26.2 -273.7 -27.9 L -273.7 -27.9 L -279.6 -38.8 L -279.6 -3.6 Q -279.6 -1.7 -280.45 -0.85 Q -281.3 0 -283.2 0 Z M -166.8 0 L -166.8 0 L -213.2 0 Q -215.1 0 -215.95 -0.85 Q -216.8 -1.7 -216.8 -3.6 L -216.8 -3.6 L -216.8 -68.4 Q -216.8 -70.3 -215.95 -71.15 Q -215.1 -72 -213.2 -72 L -213.2 -72 L -166.8 -72 Q -164.9 -72 -164.05 -71.15 Q -163.2 -70.3 -163.2 -68.4 L -163.2 -68.4 L -163.2 -56.7 Q -163.2 -54.8 -164.05 -53.95 Q -164.9 -53.1 -166.8 -53.1 L -166.8 -53.1 L -194.4 -53.1 L -194.4 -45.4 L -174.9 -45.4 Q -173 -45.4 -172.15 -44.55 Q -171.3 -43.7 -171.3 -41.8 L -171.3 -41.8 L -171.3 -31.1 Q -171.3 -29.2 -172.15 -28.35 Q -173 -27.5 -174.9 -27.5 L -174.9 -27.5 L -194.4 -27.5 L -194.4 -18.9 L -166.8 -18.9 Q -164.9 -18.9 -164.05 -18.05 Q -163.2 -17.2 -163.2 -15.3 L -163.2 -15.3 L -163.2 -3.6 Q -163.2 -1.7 -164.05 -0.85 Q -164.9 0 -166.8 0 Z M -132.8 0 L -132.8 0 L -147.8 0 Q -149.7 0 -150.55 -0.85 Q -151.4 -1.7 -151.4 -3.6 L -151.4 -3.6 L -151.4 -68.4 Q -151.4 -70.3 -150.55 -71.15 Q -149.7 -72 -147.8 -72 L -147.8 -72 L -137.4 -72 Q -135.5 -72 -134.15 -71.4 Q -132.8 -70.8 -131.5 -69.3 L -131.5 -69.3 L -112.1 -47.1 L -112.1 -68.4 Q -112.1 -70.3 -111.25 -71.15 Q -110.4 -72 -108.5 -72 L -108.5 -72 L -93.5 -72 Q -91.6 -72 -90.75 -71.15 Q -89.9 -70.3 -89.9 -68.4 L -89.9 -68.4 L -89.9 -3.6 Q -89.9 -1.7 -90.75 -0.85 Q -91.6 0 -93.5 0 L -93.5 0 L -108.5 0 Q -110.4 0 -111.25 -0.85 Q -112.1 -1.7 -112.1 -3.6 L -112.1 -3.6 L -112.1 -15.9 L -129.2 -36.6 L -129.2 -3.6 Q -129.2 -1.7 -130.05 -0.85 Q -130.9 0 -132.8 0 Z M -14.8 -68.4 L -14.8 -18.9 Q -14.8 -14.3 -16.15 -10.55 Q -17.5 -6.8 -20.95 -4.15 Q -24.4 -1.5 -30.4 0 Q -36.4 1.5 -45.7 1.5 L -45.7 1.5 Q -55 1.5 -61 0 Q -67 -1.5 -70.45 -4.15 Q -73.9 -6.8 -75.25 -10.55 Q -76.6 -14.3 -76.6 -18.9 L -76.6 -18.9 L -76.6 -68.4 Q -76.6 -70.3 -75.75 -71.15 Q -74.9 -72 -73 -72 L -73 -72 L -57.3 -72 Q -55.4 -72 -54.55 -71.15 Q -53.7 -70.3 -53.7 -68.4 L -53.7 -68.4 L -53.7 -22.8 Q -53.7 -20.8 -52.2 -19.45 Q -50.7 -18.1 -45.5 -18.1 L -45.5 -18.1 Q -40.2 -18.1 -38.7 -19.45 Q -37.2 -20.8 -37.2 -22.8 L -37.2 -22.8 L -37.2 -68.4 Q -37.2 -70.3 -36.35 -71.15 Q -35.5 -72 -33.6 -72 L -33.6 -72 L -18.4 -72 Q -16.5 -72 -15.65 -71.15 Q -14.8 -70.3 -14.8 -68.4 L -14.8 -68.4 Z M 63 0 L 63 0 L 24.6 0 Q 22.7 0 21.85 -0.85 Q 21 -1.7 21 -3.6 L 21 -3.6 L 21 -68.4 Q 21 -70.3 21.85 -71.15 Q 22.7 -72 24.6 -72 L 24.6 -72 L 56.5 -72 Q 66.3 -72 71 -68.25 Q 75.7 -64.5 75.7 -56.7 L 75.7 -56.7 L 75.7 -51.9 Q 75.7 -47.7 74.25 -45.05 Q 72.8 -42.4 69.8 -41.1 L 69.8 -41.1 Q 76.2 -40.5 79.3 -36.7 Q 82.4 -32.9 82.4 -25.6 L 82.4 -25.6 L 82.4 -16.4 Q 82.4 -8 77.65 -4 Q 72.9 0 63 0 Z M 52 -55 L 43.5 -55 L 43.5 -44.2 L 52 -44.2 Q 53.9 -44.2 54.85 -45.2 Q 55.8 -46.2 55.8 -48.2 L 55.8 -48.2 L 55.8 -51 Q 55.8 -53 54.85 -54 Q 53.9 -55 52 -55 L 52 -55 Z M 56.5 -28.8 L 43.5 -28.8 L 43.5 -17 L 56.5 -17 Q 58.4 -17 59.35 -18 Q 60.3 -19 60.3 -21 L 60.3 -21 L 60.3 -24.9 Q 60.3 -26.9 59.35 -27.85 Q 58.4 -28.8 56.5 -28.8 L 56.5 -28.8 Z M 154.5 -53 L 154.5 -18.9 Q 154.5 -14.3 153.15 -10.55 Q 151.8 -6.8 148.35 -4.15 Q 144.9 -1.5 138.85 0 Q 132.8 1.5 123.5 1.5 L 123.5 1.5 Q 114.2 1.5 108.1 0 Q 102 -1.5 98.55 -4.15 Q 95.1 -6.8 93.75 -10.55 Q 92.4 -14.3 92.4 -18.9 L 92.4 -18.9 L 92.4 -53 Q 92.4 -57.6 93.75 -61.35 Q 95.1 -65.1 98.55 -67.8 Q 102 -70.5 108.1 -72 Q 114.2 -73.5 123.5 -73.5 L 123.5 -73.5 Q 132.8 -73.5 138.85 -72 Q 144.9 -70.5 148.35 -67.8 Q 151.8 -65.1 153.15 -61.35 Q 154.5 -57.6 154.5 -53 L 154.5 -53 Z M 115.1 -49.4 L 115.1 -22.5 Q 115.1 -20.5 116.6 -19.15 Q 118.1 -17.8 123.5 -17.8 L 123.5 -17.8 Q 128.9 -17.8 130.4 -19.15 Q 131.9 -20.5 131.9 -22.5 L 131.9 -22.5 L 131.9 -49.4 Q 131.9 -51.3 130.4 -52.65 Q 128.9 -54 123.5 -54 L 123.5 -54 Q 118.1 -54 116.6 -52.65 Q 115.1 -51.3 115.1 -49.4 L 115.1 -49.4 Z M 228.2 -53 L 228.2 -18.9 Q 228.2 -14.3 226.85 -10.55 Q 225.5 -6.8 222.05 -4.15 Q 218.6 -1.5 212.55 0 Q 206.5 1.5 197.2 1.5 L 197.2 1.5 Q 187.9 1.5 181.8 0 Q 175.7 -1.5 172.25 -4.15 Q 168.8 -6.8 167.45 -10.55 Q 166.1 -14.3 166.1 -18.9 L 166.1 -18.9 L 166.1 -53 Q 166.1 -57.6 167.45 -61.35 Q 168.8 -65.1 172.25 -67.8 Q 175.7 -70.5 181.8 -72 Q 187.9 -73.5 197.2 -73.5 L 197.2 -73.5 Q 206.5 -73.5 212.55 -72 Q 218.6 -70.5 222.05 -67.8 Q 225.5 -65.1 226.85 -61.35 Q 228.2 -57.6 228.2 -53 L 228.2 -53 Z M 188.8 -49.4 L 188.8 -22.5 Q 188.8 -20.5 190.3 -19.15 Q 191.8 -17.8 197.2 -17.8 L 197.2 -17.8 Q 202.6 -17.8 204.1 -19.15 Q 205.6 -20.5 205.6 -22.5 L 205.6 -22.5 L 205.6 -49.4 Q 205.6 -51.3 204.1 -52.65 Q 202.6 -54 197.2 -54 L 197.2 -54 Q 191.8 -54 190.3 -52.65 Q 188.8 -51.3 188.8 -49.4 L 188.8 -49.4 Z M 260 0 L 260 0 L 244.5 0 Q 242.6 0 241.75 -0.85 Q 240.9 -1.7 240.9 -3.6 L 240.9 -3.6 L 240.9 -68.4 Q 240.9 -70.3 241.75 -71.15 Q 242.6 -72 244.5 -72 L 244.5 -72 L 260 -72 Q 261.9 -72 262.75 -71.15 Q 263.6 -70.3 263.6 -68.4 L 263.6 -68.4 L 263.6 -45.4 L 267.6 -45.4 L 277.9 -68.7 Q 278.6 -70.5 279.8 -71.25 Q 281 -72 282.9 -72 L 282.9 -72 L 298.3 -72 Q 300 -72 300.6 -71.15 Q 301.2 -70.3 300.5 -68.7 L 300.5 -68.7 L 290.3 -45.4 Q 295.9 -45.1 299.25 -41.45 Q 302.6 -37.8 302.6 -31.8 L 302.6 -31.8 L 302.6 -3.6 Q 302.6 -1.7 301.75 -0.85 Q 300.9 0 299 0 L 299 0 L 283.6 0 Q 281.7 0 280.85 -0.85 Q 280 -1.7 280 -3.6 L 280 -3.6 L 280 -23.1 Q 280 -24.7 279.2 -25.6 Q 278.4 -26.5 276.8 -26.5 L 276.8 -26.5 L 263.6 -26.5 L 263.6 -3.6 Q 263.6 -1.7 262.75 -0.85 Q 261.9 0 260 0 Z" data-textpath="menu book" data-text-anchor="middle" data-font-size="100" data-letterspacing="0" data-side="left" data-offset="0" data-dx="0" data-dy="190.5" data-xmlspace="preserve" data-href="" data-font="Bungee" data-font-src="/Content/clientfonts/bungee.woff" data-font-scale="contain" data-x="179" data-y="0" /></g></svg></g></g></svg>