<svg xmlns="http://www.w3.org/2000/svg" class="thumb" viewBox="0 0 446 327" width="446" height="327" xmlns:xlink="http://www.w3.org/1999/xlink" xmlns:inkscape="http://www.inkscape.org/namespaces/inkscape" xmlns:sodipodi="http://sodipodi.sourceforge.net/DTD/sodipodi-0.dtd" xmlns:ns1="http://www.inkscape.org/namespaces/inkscape" xmlns:sketch="http://www.bohemiancoding.com/sketch/ns"><defs /><g><g transform="matrix(0.851, 0, 0, 0.851, 145.757, 10.6502)"><svg class="thumb" viewBox="-5.13186 -5 187.034 186.77" width="187.034" height="186.77"><defs><linearGradient id="linearGradientSkioa3hie684" x1="0" y1="0.5" x2="1" y2="0.5"><stop stop-color="rgb(153, 6, 87)" offset="0%" /><stop stop-color="rgb(153, 6, 87)" offset="100%" /></linearGradient></defs><circle fill="url(#linearGradientSkioa3hie684)" cx="88.385" cy="88.385" r="88.385" /></svg></g><g transform="matrix(0.7529, 0.4889, -0.6061, 0.9333, 236.799, 39.6471)"><svg viewBox="-5 11.4228 22.801 93.4882" width="22.801" height="93.4882"><defs><linearGradient id="linearGradientSkioa3hie68a" x1="0" y1="0.5" x2="1" y2="0.5"><stop stop-color="rgb(255, 255, 255)" offset="0%" /><stop stop-color="rgb(255, 255, 255)" offset="100%" /></linearGradient></defs><path fill="url(#linearGradientSkioa3hie68a)" d="M 12.77 41.32 c 0 -2.544 -1.786 -20.612 -2.031 -23.321 c -0.246 -2.708 -0.734 -1.395 -0.734 0 c 0 1.396 0.399 18.04 0.399 20.37 c 0 2.332 -1.023 2.659 -1.061 1.183 C 9.28 37.008 8.334 20.708 8.089 17.999 c -0.245 -2.708 -0.733 -1.395 -0.733 0 c 0 1.396 -0.376 21.117 -0.377 22.138 c 0 0.953 -1.155 0.936 -1.155 0 c -0.001 -1.021 -0.376 -20.742 -0.376 -22.138 c 0 -1.395 -0.49 -2.708 -0.734 0 c -0.245 2.708 -1.19 19.009 -1.254 21.553 c -0.037 1.476 -1.06 1.149 -1.06 -1.183 c 0 -2.33 0.399 -18.973 0.399 -20.37 c 0 -1.395 -0.489 -2.708 -0.733 0 C 1.82 20.708 0.034 38.775 0.034 41.32 L 0 42.939 c 0 5.71 4.277 5.783 4.277 10.028 c 0 3.6 -0.36 26.795 -0.388 27.347 c -0.26 5.122 -1.687 10.812 -1.687 15.57 c 0 4.027 4.199 4.027 4.199 4.027 h 0 c 0 0 4.199 0 4.199 -4.027 c 0 -4.759 -1.428 -10.448 -1.687 -15.57 c -0.028 -0.552 -0.388 -23.747 -0.388 -27.347 c 0 -4.245 4.276 -4.317 4.276 -10.028 L 12.77 41.32 Z" /></svg></g><g transform="matrix(0.7278, 0.4726, -0.5859, 0.9022, 258.304, 37.1479)"><svg viewBox="12.477 -5.00012 21.182 109.912" width="21.182" height="109.912"><defs><linearGradient id="linearGradientSkioa3hie68g" x1="0" y1="0.5" x2="1" y2="0.5"><stop stop-color="rgb(255, 255, 255)" offset="0%" /><stop stop-color="rgb(255, 255, 255)" offset="100%" /></linearGradient></defs><path fill="url(#linearGradientSkioa3hie68g)" d="M 26.532 1.554 c 0 -1.295 0.196 -1.538 -1.036 -1.554 c -3.883 -0.051 -6.084 15.662 -6.569 19.513 c -0.339 2.699 -1.45 17.746 -1.45 20.29 v 2.165 c 0 5.71 4.472 6.754 4.472 11 c 0 3.6 -1.331 26.795 -1.359 27.347 c -0.26 5.122 -0.717 10.812 -0.717 15.571 c 0 4.026 4.199 4.026 4.199 4.026 h 0.001 c 0 0 4.586 0 4.586 -4.026 c 0 -4.76 -1.039 -10.449 -1.298 -15.571 c -0.027 -0.552 -1.165 -23.747 -1.165 -27.347 C 26.145 50.661 26.532 2.848 26.532 1.554 Z" /></svg></g><g transform="matrix(1.7958, 0, 0, 1.7958, 135.844, 0.0002)"><svg class="thumb" viewBox="0 0.646 100 100" width="100" height="100"><defs><linearGradient id="linearGradientSkioa3hie68m" x1="0" y1="0.5" x2="1" y2="0.5"><stop stop-color="rgb(153, 6, 87)" offset="0%" /><stop stop-color="rgb(153, 6, 87)" offset="100%" /></linearGradient></defs><path fill="url(#linearGradientSkioa3hie68m)" d="M 50 95.646 c 24.854 0 45 -20.147 45 -45 s -20.146 -45 -45 -45 s -45 20.147 -45 45 S 25.146 95.646 50 95.646 Z M 50 6.646 c 24.262 0 44 19.738 44 44 s -19.738 44 -44 44 s -44 -19.738 -44 -44 S 25.738 6.646 50 6.646 Z" /></svg></g><g transform="matrix(0.117, 0, 0, 1.4467, 64.7533, 271.311)"><svg class="thumb" viewBox="-5 79.525 186.742 17.219" width="186.742" height="17.219"><defs><linearGradient id="linearGradientSkioa3hie68s" x1="0" y1="0.5" x2="1" y2="0.5"><stop stop-color="rgb(153, 6, 87)" offset="0%" /><stop stop-color="rgb(153, 6, 87)" offset="100%" /></linearGradient></defs><rect fill="url(#linearGradientSkioa3hie68s)" y="84.525" width="176.742" height="7.219" /></svg></g><g transform="matrix(0.117, 0, 0, 1.4467, 356.754, 271.311)"><svg class="thumb" viewBox="-5 79.525 186.742 17.219" width="186.742" height="17.219"><defs><linearGradient id="linearGradientSkioa3hie68y" x1="0" y1="0.5" x2="1" y2="0.5"><stop stop-color="rgb(153, 6, 87)" offset="0%" /><stop stop-color="rgb(153, 6, 87)" offset="100%" /></linearGradient></defs><rect fill="url(#linearGradientSkioa3hie68y)" y="84.525" width="176.742" height="7.219" /></svg></g><g transform="matrix(1.5676, 0, 0, 1.5676, 147.256, 11.4127)"><svg class="thumb" viewBox="0 0.646 100 100" width="100" height="100"><defs><linearGradient id="linearGradientSkioa3hie694" x1="0" y1="0.5" x2="1" y2="0.5"><stop stop-color="rgb(255, 255, 255)" offset="0%" /><stop stop-color="rgb(255, 255, 255)" offset="100%" /></linearGradient></defs><path fill="url(#linearGradientSkioa3hie694)" d="M 50 95.646 c 24.854 0 45 -20.147 45 -45 s -20.146 -45 -45 -45 s -45 20.147 -45 45 S 25.146 95.646 50 95.646 Z M 50 6.646 c 24.262 0 44 19.738 44 44 s -19.738 44 -44 44 s -44 -19.738 -44 -44 S 25.738 6.646 50 6.646 Z" /></svg></g><g transform="matrix(0.5522, 0, 0, 0.5831, 62.4138, 174.962)"><svg style="overflow: visible;" width="832.857" height="188"><defs><linearGradient id="linearGradientSkioa3hie6bm" x1="0" y1="0.5" x2="1" y2="0.5"><stop stop-color="rgb(153, 6, 87)" offset="0%" /><stop stop-color="rgb(153, 6, 87)" offset="100%" /></linearGradient></defs><g><path fill="url(#linearGradientSkioa3hie6bm)" transform="translate(291.5 96)" d="M -395.333 -71.92 L -316.523 -71.92 L -316.523 -43.31 L -332.593 -43.31 Q -332.593 -46.58 -332.763 -49 Q -332.933 -51.42 -333.523 -52.91 Q -334.103 -54.39 -335.303 -55.1 Q -336.503 -55.81 -338.503 -55.81 L -338.503 -55.81 L -341.523 -55.81 L -341.523 -23.58 Q -341.523 -20.41 -339.673 -19.26 Q -337.813 -18.12 -333.523 -18.12 L -333.523 -18.12 L -333.523 0 L -378.293 0 L -378.293 -18.12 Q -374.003 -18.12 -372.163 -19.26 Q -370.333 -20.41 -370.333 -23.58 L -370.333 -23.58 L -370.333 -55.81 L -373.313 -55.81 Q -375.313 -55.81 -376.513 -55.1 Q -377.713 -54.39 -378.323 -52.91 Q -378.933 -51.42 -379.073 -49 Q -379.223 -46.58 -379.223 -43.31 L -379.223 -43.31 L -395.333 -43.31 L -395.333 -71.92 Z M -276.683 -18.12 L -267.893 -18.12 Q -265.893 -18.12 -264.553 -18.46 Q -263.213 -18.8 -262.403 -19.75 Q -261.593 -20.7 -261.303 -22.36 Q -261.013 -24.02 -261.013 -26.61 L -261.013 -26.61 L -243.923 -26.61 L -243.923 0 L -313.503 0 L -313.503 -18.12 Q -309.203 -18.12 -307.353 -19.26 Q -305.493 -20.41 -305.493 -23.58 L -305.493 -23.58 L -305.493 -48.29 Q -305.493 -51.51 -307.353 -52.66 Q -309.203 -53.81 -313.503 -53.81 L -313.503 -53.81 L -313.503 -71.92 L -243.923 -71.92 L -243.923 -45.31 L -261.013 -45.31 Q -261.013 -47.9 -261.303 -49.56 Q -261.593 -51.22 -262.403 -52.15 Q -263.213 -53.08 -264.553 -53.44 Q -265.893 -53.81 -267.893 -53.81 L -267.893 -53.81 L -276.683 -53.81 L -276.683 -40.82 L -261.113 -40.82 L -261.113 -32.18 L -276.683 -32.18 L -276.683 -18.12 Z M -203.099 -18.12 L -194.309 -18.12 Q -192.309 -18.12 -190.969 -18.46 Q -189.629 -18.8 -188.819 -19.75 Q -188.009 -20.7 -187.719 -22.36 Q -187.429 -24.02 -187.429 -26.61 L -187.429 -26.61 L -170.339 -26.61 L -170.339 0 L -239.919 0 L -239.919 -18.12 Q -235.619 -18.12 -233.769 -19.26 Q -231.909 -20.41 -231.909 -23.58 L -231.909 -23.58 L -231.909 -48.29 Q -231.909 -51.51 -233.769 -52.66 Q -235.619 -53.81 -239.919 -53.81 L -239.919 -53.81 L -239.919 -71.92 L -170.339 -71.92 L -170.339 -45.31 L -187.429 -45.31 Q -187.429 -47.9 -187.719 -49.56 Q -188.009 -51.22 -188.819 -52.15 Q -189.629 -53.08 -190.969 -53.44 Q -192.309 -53.81 -194.309 -53.81 L -194.309 -53.81 L -203.099 -53.81 L -203.099 -40.82 L -187.529 -40.82 L -187.529 -32.18 L -203.099 -32.18 L -203.099 -18.12 Z M -52.955 0 L -96.215 0 L -96.215 -18.12 Q -91.915 -18.12 -90.575 -19.26 Q -89.235 -20.41 -89.235 -23.58 L -89.235 -23.58 L -89.235 -51.61 L -105.935 0 L -124.735 0 L -141.725 -48.88 L -141.725 -23 Q -141.725 -21.39 -141.435 -20.43 Q -141.135 -19.48 -140.385 -18.95 Q -139.625 -18.41 -138.235 -18.26 Q -136.845 -18.12 -134.745 -18.12 L -134.745 -18.12 L -134.745 0 L -166.335 0 L -166.335 -18.12 Q -162.035 -18.12 -160.185 -19.26 Q -158.325 -20.41 -158.325 -23.58 L -158.325 -23.58 L -158.325 -48.29 Q -158.325 -51.51 -160.185 -52.66 Q -162.035 -53.81 -166.335 -53.81 L -166.335 -53.81 L -166.335 -71.92 L -119.845 -71.92 L -108.615 -38.18 L -98.855 -71.92 L -52.955 -71.92 L -52.955 -53.81 Q -57.255 -53.81 -59.085 -52.66 Q -60.915 -51.51 -60.915 -48.29 L -60.915 -48.29 L -60.915 -23.58 Q -60.915 -20.41 -59.085 -19.26 Q -57.255 -18.12 -52.955 -18.12 L -52.955 -18.12 L -52.955 0 Z M -48.4621 -35.89 L -48.4621 -35.89 Q -48.4621 -45.31 -45.3621 -52.42 Q -42.2621 -59.52 -36.5921 -64.31 Q -30.9321 -69.09 -23.1421 -71.48 Q -15.3521 -73.88 -5.93215 -73.88 L -5.93215 -73.88 Q 3.43785 -73.88 11.2579 -71.48 Q 19.0679 -69.09 24.7079 -64.31 Q 30.3479 -59.52 33.4479 -52.42 Q 36.5479 -45.31 36.5479 -35.89 L 36.5479 -35.89 Q 36.5479 -26.51 33.4479 -19.41 Q 30.3479 -12.3 24.7079 -7.5 Q 19.0679 -2.69 11.2579 -0.29 Q 3.43785 2.1 -5.93215 2.1 L -5.93215 2.1 Q -15.3521 2.1 -23.1421 -0.29 Q -30.9321 -2.69 -36.5921 -7.5 Q -42.2621 -12.3 -45.3621 -19.41 Q -48.4621 -26.51 -48.4621 -35.89 Z M -15.6521 -35.89 L -15.6521 -35.89 Q -15.6521 -29.98 -15.2121 -26 Q -14.7721 -22.02 -13.6721 -19.56 Q -12.5721 -17.09 -10.7221 -15.99 Q -8.86215 -14.89 -5.93215 -14.89 L -5.93215 -14.89 Q -3.15215 -14.89 -1.24215 -15.99 Q 0.657852 -17.09 1.75785 -19.56 Q 2.85785 -22.02 3.29785 -26 Q 3.73785 -29.98 3.73785 -35.89 L 3.73785 -35.89 Q 3.73785 -41.7 3.29785 -45.75 Q 2.85785 -49.8 1.75785 -52.25 Q 0.657852 -54.69 -1.24215 -55.79 Q -3.15215 -56.88 -5.93215 -56.88 L -5.93215 -56.88 Q -8.86215 -56.88 -10.7221 -55.79 Q -12.5721 -54.69 -13.6721 -52.25 Q -14.7721 -49.8 -15.2121 -45.75 Q -15.6521 -41.7 -15.6521 -35.89 Z M 107.638 -71.92 L 107.638 -45.8 L 91.5281 -45.8 Q 91.1381 -48.29 89.7981 -50.44 Q 88.4481 -52.59 86.4981 -54.15 Q 84.5481 -55.71 82.1581 -56.57 Q 79.7581 -57.42 77.2181 -57.42 L 77.2181 -57.42 Q 74.1481 -57.42 72.2381 -56.25 Q 70.3381 -55.08 70.3381 -52.98 L 70.3381 -52.98 Q 70.3381 -50.98 72.0481 -49.73 Q 73.7581 -48.49 76.5381 -47.58 Q 79.3181 -46.68 82.8881 -45.85 Q 86.4481 -45.02 90.1381 -43.8 Q 93.8281 -42.58 97.3881 -40.84 Q 100.948 -39.11 103.738 -36.4 Q 106.518 -33.69 108.228 -29.79 Q 109.938 -25.88 109.938 -20.41 L 109.938 -20.41 Q 109.938 -14.6 107.448 -10.5 Q 104.958 -6.4 100.758 -3.76 Q 96.5581 -1.12 91.0881 0.1 Q 85.6181 1.32 79.7581 1.32 L 79.7581 1.32 Q 74.0481 1.32 68.8481 0 Q 63.6481 -1.32 58.2281 -4.3 L 58.2281 -4.3 L 58.2281 0 L 42.1181 0 L 42.1181 -26.61 L 58.2281 -26.61 Q 59.6481 -20.9 63.8881 -17.6 Q 68.1381 -14.31 73.4581 -14.31 L 73.4581 -14.31 Q 77.0281 -14.31 78.7881 -15.65 Q 80.5381 -16.99 80.5381 -18.7 L 80.5381 -18.7 Q 80.5381 -21.39 77.6381 -22.85 Q 74.7281 -24.32 70.4381 -25.46 Q 66.1381 -26.61 61.0381 -28.05 Q 55.9281 -29.49 51.6381 -32.2 Q 47.3381 -34.91 44.4381 -39.36 Q 41.5281 -43.8 41.5281 -50.98 L 41.5281 -50.98 Q 41.5281 -56.3 43.8281 -60.4 Q 46.1181 -64.5 49.9781 -67.31 Q 53.8281 -70.12 58.8881 -71.56 Q 63.9381 -73 69.5581 -73 L 69.5581 -73 Q 77.3181 -73 82.8881 -71.19 Q 88.4481 -69.38 91.5281 -67.38 L 91.5281 -67.38 L 91.5281 -71.92 L 107.638 -71.92 Z M 168.047 -23 L 168.047 -32.08 L 151.247 -32.08 L 151.247 -23 Q 151.247 -20.41 152.687 -19.26 Q 154.127 -18.12 157.837 -18.12 L 157.837 -18.12 L 157.837 0 L 114.427 0 L 114.427 -18.12 Q 118.727 -18.12 120.577 -19.26 Q 122.437 -20.41 122.437 -23.58 L 122.437 -23.58 L 122.437 -48.29 Q 122.437 -51.51 120.577 -52.66 Q 118.727 -53.81 114.427 -53.81 L 114.427 -53.81 L 114.427 -71.92 L 157.837 -71.92 L 157.837 -53.81 Q 154.127 -53.81 152.687 -52.66 Q 151.247 -51.51 151.247 -48.88 L 151.247 -48.88 L 151.247 -41.02 L 168.047 -41.02 L 168.047 -48.88 Q 168.047 -51.51 166.577 -52.66 Q 165.117 -53.81 161.447 -53.81 L 161.447 -53.81 L 161.447 -71.92 L 204.807 -71.92 L 204.807 -53.81 Q 200.517 -53.81 198.677 -52.66 Q 196.847 -51.51 196.847 -48.29 L 196.847 -48.29 L 196.847 -23.58 Q 196.847 -20.41 198.677 -19.26 Q 200.517 -18.12 204.807 -18.12 L 204.807 -18.12 L 204.807 0 L 161.447 0 L 161.447 -18.12 Q 165.117 -18.12 166.577 -19.26 Q 168.047 -20.41 168.047 -23 L 168.047 -23 Z M 209.302 -35.89 L 209.302 -35.89 Q 209.302 -45.31 212.402 -52.42 Q 215.502 -59.52 221.172 -64.31 Q 226.832 -69.09 234.622 -71.48 Q 242.412 -73.88 251.832 -73.88 L 251.832 -73.88 Q 261.202 -73.88 269.022 -71.48 Q 276.832 -69.09 282.472 -64.31 Q 288.112 -59.52 291.212 -52.42 Q 294.312 -45.31 294.312 -35.89 L 294.312 -35.89 Q 294.312 -26.51 291.212 -19.41 Q 288.112 -12.3 282.472 -7.5 Q 276.832 -2.69 269.022 -0.29 Q 261.202 2.1 251.832 2.1 L 251.832 2.1 Q 242.412 2.1 234.622 -0.29 Q 226.832 -2.69 221.172 -7.5 Q 215.502 -12.3 212.402 -19.41 Q 209.302 -26.51 209.302 -35.89 Z M 242.112 -35.89 L 242.112 -35.89 Q 242.112 -29.98 242.552 -26 Q 242.992 -22.02 244.092 -19.56 Q 245.192 -17.09 247.042 -15.99 Q 248.902 -14.89 251.832 -14.89 L 251.832 -14.89 Q 254.612 -14.89 256.522 -15.99 Q 258.422 -17.09 259.522 -19.56 Q 260.622 -22.02 261.062 -26 Q 261.502 -29.98 261.502 -35.89 L 261.502 -35.89 Q 261.502 -41.7 261.062 -45.75 Q 260.622 -49.8 259.522 -52.25 Q 258.422 -54.69 256.522 -55.79 Q 254.612 -56.88 251.832 -56.88 L 251.832 -56.88 Q 248.902 -56.88 247.042 -55.79 Q 245.192 -54.69 244.092 -52.25 Q 242.992 -49.8 242.552 -45.75 Q 242.112 -41.7 242.112 -35.89 Z M 309.892 -73.88 L 309.892 -73.88 Q 314.482 -73.88 316.702 -71.34 Q 318.922 -68.8 318.922 -65.48 L 318.922 -65.48 Q 318.922 -62.4 317.972 -56.49 Q 317.012 -50.59 313.892 -41.02 L 313.892 -41.02 L 305.882 -41.02 Q 304.322 -45.8 303.322 -49.66 Q 302.322 -53.52 301.762 -56.47 Q 301.192 -59.42 301.002 -61.62 Q 300.802 -63.82 300.802 -65.28 L 300.802 -65.28 Q 300.802 -68.7 303.052 -71.29 Q 305.302 -73.88 309.892 -73.88 Z M 391.525 -71.92 L 391.525 -45.8 L 375.415 -45.8 Q 375.025 -48.29 373.685 -50.44 Q 372.335 -52.59 370.385 -54.15 Q 368.435 -55.71 366.045 -56.57 Q 363.645 -57.42 361.105 -57.42 L 361.105 -57.42 Q 358.035 -57.42 356.125 -56.25 Q 354.225 -55.08 354.225 -52.98 L 354.225 -52.98 Q 354.225 -50.98 355.935 -49.73 Q 357.645 -48.49 360.425 -47.58 Q 363.205 -46.68 366.775 -45.85 Q 370.335 -45.02 374.025 -43.8 Q 377.715 -42.58 381.275 -40.84 Q 384.835 -39.11 387.625 -36.4 Q 390.405 -33.69 392.115 -29.79 Q 393.825 -25.88 393.825 -20.41 L 393.825 -20.41 Q 393.825 -14.6 391.335 -10.5 Q 388.845 -6.4 384.645 -3.76 Q 380.445 -1.12 374.975 0.1 Q 369.505 1.32 363.645 1.32 L 363.645 1.32 Q 357.935 1.32 352.735 0 Q 347.535 -1.32 342.115 -4.3 L 342.115 -4.3 L 342.115 0 L 326.005 0 L 326.005 -26.61 L 342.115 -26.61 Q 343.535 -20.9 347.775 -17.6 Q 352.025 -14.31 357.345 -14.31 L 357.345 -14.31 Q 360.915 -14.31 362.675 -15.65 Q 364.425 -16.99 364.425 -18.7 L 364.425 -18.7 Q 364.425 -21.39 361.525 -22.85 Q 358.615 -24.32 354.325 -25.46 Q 350.025 -26.61 344.925 -28.05 Q 339.815 -29.49 335.525 -32.2 Q 331.225 -34.91 328.325 -39.36 Q 325.415 -43.8 325.415 -50.98 L 325.415 -50.98 Q 325.415 -56.3 327.715 -60.4 Q 330.005 -64.5 333.865 -67.31 Q 337.715 -70.12 342.775 -71.56 Q 347.825 -73 353.445 -73 L 353.445 -73 Q 361.205 -73 366.775 -71.19 Q 372.335 -69.38 375.415 -67.38 L 375.415 -67.38 L 375.415 -71.92 L 391.525 -71.92 Z" data-textpath="TEEMOSHO'S" data-text-anchor="middle" data-font-size="100" data-letterspacing="0" data-side="left" data-offset="0" data-dx="0" data-dy="96" data-xmlspace="preserve" data-href="" data-font="Ultra" data-font-src="/Content/clientfonts/ultra.woff" data-font-scale="contain" data-x="291.5" data-y="0" /></g></svg></g><g transform="matrix(0.6915, 0, 0, 0.6915, 98.6309, 238.536)"><svg style="overflow: visible;" width="710" height="188"><defs><linearGradient id="linearGradientSkioa3hie6bp" x1="0" y1="0.5" x2="1" y2="0.5"><stop stop-color="rgb(153, 6, 87)" offset="0%" /><stop stop-color="rgb(153, 6, 87)" offset="100%" /></linearGradient></defs><g><path fill="url(#linearGradientSkioa3hie6bp)" transform="translate(177.5 96)" d="M -362.647 0 L -406.057 0 L -406.057 -18.12 Q -401.757 -18.12 -399.907 -19.26 Q -398.047 -20.41 -398.047 -23.58 L -398.047 -23.58 L -398.047 -48.29 Q -398.047 -51.51 -399.907 -52.66 Q -401.757 -53.81 -406.057 -53.81 L -406.057 -53.81 L -406.057 -71.92 L -354.347 -71.92 Q -347.167 -71.92 -342.257 -70.51 Q -337.357 -69.09 -334.397 -66.46 Q -331.447 -63.82 -330.197 -60.16 Q -328.957 -56.49 -328.957 -52 L -328.957 -52 Q -328.957 -43.8 -332.907 -38.89 Q -336.867 -33.98 -345.557 -33.59 L -345.557 -33.59 L -345.557 -33.01 Q -341.357 -32.71 -338.597 -31.45 Q -335.837 -30.18 -334.257 -28.15 Q -332.667 -26.12 -332.007 -23.27 Q -331.347 -20.41 -331.347 -16.8 L -331.347 -16.8 L -331.347 -14.21 Q -331.347 -12.99 -330.717 -12.08 Q -330.077 -11.18 -328.757 -11.18 L -328.757 -11.18 Q -327.347 -11.18 -326.757 -12.08 Q -326.177 -12.99 -326.177 -14.21 L -326.177 -14.21 L -326.177 -26.61 L -320.557 -26.61 L -320.557 -14.21 Q -320.557 -10.69 -321.607 -7.74 Q -322.657 -4.79 -325.047 -2.59 Q -327.437 -0.39 -331.347 0.81 Q -335.257 2 -340.967 2 L -340.967 2 Q -346.677 2 -350.317 0.76 Q -353.957 -0.49 -356.007 -2.69 Q -358.057 -4.88 -358.867 -7.79 Q -359.667 -10.69 -359.667 -13.92 L -359.667 -13.92 L -359.667 -17.68 Q -359.667 -21.58 -360.107 -24 Q -360.547 -26.42 -361.547 -27.76 Q -362.547 -29.1 -364.157 -29.54 Q -365.767 -29.98 -368.067 -29.98 L -368.067 -29.98 L -369.237 -29.98 L -369.237 -23 Q -369.237 -20.41 -367.797 -19.26 Q -366.357 -18.12 -362.647 -18.12 L -362.647 -18.12 L -362.647 0 Z M -369.237 -53.81 L -369.237 -38.62 L -364.937 -38.62 Q -360.837 -38.62 -359.307 -40.6 Q -357.767 -42.58 -357.767 -46.09 L -357.767 -46.09 Q -357.767 -50.2 -359.307 -52 Q -360.837 -53.81 -364.937 -53.81 L -364.937 -53.81 L -369.237 -53.81 Z M -281.737 -18.12 L -272.947 -18.12 Q -270.947 -18.12 -269.607 -18.46 Q -268.267 -18.8 -267.457 -19.75 Q -266.647 -20.7 -266.357 -22.36 Q -266.067 -24.02 -266.067 -26.61 L -266.067 -26.61 L -248.977 -26.61 L -248.977 0 L -318.557 0 L -318.557 -18.12 Q -314.257 -18.12 -312.407 -19.26 Q -310.547 -20.41 -310.547 -23.58 L -310.547 -23.58 L -310.547 -48.29 Q -310.547 -51.51 -312.407 -52.66 Q -314.257 -53.81 -318.557 -53.81 L -318.557 -53.81 L -318.557 -71.92 L -248.977 -71.92 L -248.977 -45.31 L -266.067 -45.31 Q -266.067 -47.9 -266.357 -49.56 Q -266.647 -51.22 -267.457 -52.15 Q -268.267 -53.08 -269.607 -53.44 Q -270.947 -53.81 -272.947 -53.81 L -272.947 -53.81 L -281.737 -53.81 L -281.737 -40.82 L -266.167 -40.82 L -266.167 -32.18 L -281.737 -32.18 L -281.737 -18.12 Z M -178.373 -71.92 L -178.373 -45.8 L -194.483 -45.8 Q -194.873 -48.29 -196.213 -50.44 Q -197.563 -52.59 -199.513 -54.15 Q -201.463 -55.71 -203.853 -56.57 Q -206.253 -57.42 -208.793 -57.42 L -208.793 -57.42 Q -211.863 -57.42 -213.773 -56.25 Q -215.673 -55.08 -215.673 -52.98 L -215.673 -52.98 Q -215.673 -50.98 -213.963 -49.73 Q -212.253 -48.49 -209.473 -47.58 Q -206.693 -46.68 -203.123 -45.85 Q -199.563 -45.02 -195.873 -43.8 Q -192.183 -42.58 -188.623 -40.84 Q -185.063 -39.11 -182.273 -36.4 Q -179.493 -33.69 -177.783 -29.79 Q -176.073 -25.88 -176.073 -20.41 L -176.073 -20.41 Q -176.073 -14.6 -178.563 -10.5 Q -181.053 -6.4 -185.253 -3.76 Q -189.453 -1.12 -194.923 0.1 Q -200.393 1.32 -206.253 1.32 L -206.253 1.32 Q -211.963 1.32 -217.163 0 Q -222.363 -1.32 -227.783 -4.3 L -227.783 -4.3 L -227.783 0 L -243.893 0 L -243.893 -26.61 L -227.783 -26.61 Q -226.363 -20.9 -222.123 -17.6 Q -217.873 -14.31 -212.553 -14.31 L -212.553 -14.31 Q -208.983 -14.31 -207.223 -15.65 Q -205.473 -16.99 -205.473 -18.7 L -205.473 -18.7 Q -205.473 -21.39 -208.373 -22.85 Q -211.283 -24.32 -215.573 -25.46 Q -219.873 -26.61 -224.973 -28.05 Q -230.083 -29.49 -234.373 -32.2 Q -238.673 -34.91 -241.573 -39.36 Q -244.483 -43.8 -244.483 -50.98 L -244.483 -50.98 Q -244.483 -56.3 -242.183 -60.4 Q -239.893 -64.5 -236.033 -67.31 Q -232.183 -70.12 -227.123 -71.56 Q -222.073 -73 -216.453 -73 L -216.453 -73 Q -208.693 -73 -203.123 -71.19 Q -197.563 -69.38 -194.483 -67.38 L -194.483 -67.38 L -194.483 -71.92 L -178.373 -71.92 Z M -172.604 -71.92 L -93.794 -71.92 L -93.794 -43.31 L -109.864 -43.31 Q -109.864 -46.58 -110.034 -49 Q -110.204 -51.42 -110.794 -52.91 Q -111.374 -54.39 -112.574 -55.1 Q -113.774 -55.81 -115.774 -55.81 L -115.774 -55.81 L -118.794 -55.81 L -118.794 -23.58 Q -118.794 -20.41 -116.944 -19.26 Q -115.084 -18.12 -110.794 -18.12 L -110.794 -18.12 L -110.794 0 L -155.564 0 L -155.564 -18.12 Q -151.274 -18.12 -149.434 -19.26 Q -147.604 -20.41 -147.604 -23.58 L -147.604 -23.58 L -147.604 -55.81 L -150.584 -55.81 Q -152.584 -55.81 -153.784 -55.1 Q -154.984 -54.39 -155.594 -52.91 Q -156.204 -51.42 -156.344 -49 Q -156.494 -46.58 -156.494 -43.31 L -156.494 -43.31 L -172.604 -43.31 L -172.604 -71.92 Z M -53.859 -23 L -54.539 -25.1 L -69.969 -25.1 L -70.659 -23 Q -71.439 -20.9 -70.559 -19.51 Q -69.679 -18.12 -66.849 -18.12 L -66.849 -18.12 L -64.059 -18.12 L -64.059 0 L -94.479 0 L -94.479 -18.12 L -92.479 -18.12 Q -88.969 -18.12 -87.769 -19.51 Q -86.569 -20.9 -85.449 -23.58 L -85.449 -23.58 L -75.439 -48.29 Q -74.369 -51.12 -75.069 -52.47 Q -75.779 -53.81 -79.349 -53.81 L -79.349 -53.81 L -80.369 -53.81 L -80.369 -71.92 L -30.179 -71.92 L -30.179 -53.81 L -31.149 -53.81 Q -34.769 -53.81 -35.469 -52.39 Q -36.179 -50.98 -35.059 -48.29 L -35.059 -48.29 L -25.049 -23.58 Q -24.459 -22.22 -23.999 -21.22 Q -23.539 -20.21 -22.849 -19.51 Q -22.169 -18.8 -21.019 -18.46 Q -19.869 -18.12 -18.069 -18.12 L -18.069 -18.12 L -16.069 -18.12 L -16.069 0 L -60.449 0 L -60.449 -18.12 L -57.759 -18.12 Q -54.979 -18.12 -54.029 -19.51 Q -53.079 -20.9 -53.859 -23 L -53.859 -23 Z M -62.349 -47.71 L -67.479 -32.71 L -57.079 -32.71 L -61.959 -47.71 L -62.349 -47.71 Z M -13.0391 -71.92 L 30.3709 -71.92 L 30.3709 -53.81 Q 26.6609 -53.81 25.2209 -52.66 Q 23.7809 -51.51 23.7809 -48.88 L 23.7809 -48.88 L 23.7809 -26.32 Q 23.7809 -24.51 24.1709 -22.85 Q 24.5609 -21.19 25.5109 -19.9 Q 26.4609 -18.6 28.0509 -17.85 Q 29.6409 -17.09 32.0809 -17.09 L 32.0809 -17.09 Q 36.7709 -17.09 38.9209 -19.56 Q 41.0609 -22.02 41.0609 -26.22 L 41.0609 -26.22 L 41.0609 -48.68 Q 41.0609 -51.71 39.2609 -52.76 Q 37.4509 -53.81 34.2809 -53.81 L 34.2809 -53.81 L 34.2809 -71.92 L 66.4509 -71.92 L 66.4509 -53.81 Q 63.1809 -53.81 61.4209 -52.86 Q 59.6709 -51.9 59.6709 -48.88 L 59.6709 -48.88 L 59.6709 -25.59 Q 59.6709 -21.09 58.5209 -16.24 Q 57.3709 -11.38 54.0309 -7.35 Q 50.6809 -3.32 44.4809 -0.66 Q 38.2809 2 28.0809 2 L 28.0809 2 Q 20.6509 2 15.3109 0.66 Q 9.96094 -0.68 6.25094 -2.88 Q 2.54094 -5.08 0.340937 -7.89 Q -1.85906 -10.69 -3.04906 -13.7 Q -4.24906 -16.7 -4.63906 -19.56 Q -5.02906 -22.41 -5.02906 -24.8 L -5.02906 -24.8 L -5.02906 -48.29 Q -5.02906 -51.51 -6.88906 -52.66 Q -8.73906 -53.81 -13.0391 -53.81 L -13.0391 -53.81 L -13.0391 -71.92 Z M 113.867 0 L 70.457 0 L 70.457 -18.12 Q 74.757 -18.12 76.607 -19.26 Q 78.467 -20.41 78.467 -23.58 L 78.467 -23.58 L 78.467 -48.29 Q 78.467 -51.51 76.607 -52.66 Q 74.757 -53.81 70.457 -53.81 L 70.457 -53.81 L 70.457 -71.92 L 122.167 -71.92 Q 129.347 -71.92 134.257 -70.51 Q 139.157 -69.09 142.117 -66.46 Q 145.067 -63.82 146.317 -60.16 Q 147.557 -56.49 147.557 -52 L 147.557 -52 Q 147.557 -43.8 143.607 -38.89 Q 139.647 -33.98 130.957 -33.59 L 130.957 -33.59 L 130.957 -33.01 Q 135.157 -32.71 137.917 -31.45 Q 140.677 -30.18 142.257 -28.15 Q 143.847 -26.12 144.507 -23.27 Q 145.167 -20.41 145.167 -16.8 L 145.167 -16.8 L 145.167 -14.21 Q 145.167 -12.99 145.797 -12.08 Q 146.437 -11.18 147.757 -11.18 L 147.757 -11.18 Q 149.167 -11.18 149.757 -12.08 Q 150.337 -12.99 150.337 -14.21 L 150.337 -14.21 L 150.337 -26.61 L 155.957 -26.61 L 155.957 -14.21 Q 155.957 -10.69 154.907 -7.74 Q 153.857 -4.79 151.467 -2.59 Q 149.077 -0.39 145.167 0.81 Q 141.257 2 135.547 2 L 135.547 2 Q 129.837 2 126.197 0.76 Q 122.557 -0.49 120.507 -2.69 Q 118.457 -4.88 117.647 -7.79 Q 116.847 -10.69 116.847 -13.92 L 116.847 -13.92 L 116.847 -17.68 Q 116.847 -21.58 116.407 -24 Q 115.967 -26.42 114.967 -27.76 Q 113.967 -29.1 112.357 -29.54 Q 110.747 -29.98 108.447 -29.98 L 108.447 -29.98 L 107.277 -29.98 L 107.277 -23 Q 107.277 -20.41 108.717 -19.26 Q 110.157 -18.12 113.867 -18.12 L 113.867 -18.12 L 113.867 0 Z M 107.277 -53.81 L 107.277 -38.62 L 111.577 -38.62 Q 115.677 -38.62 117.207 -40.6 Q 118.747 -42.58 118.747 -46.09 L 118.747 -46.09 Q 118.747 -50.2 117.207 -52 Q 115.677 -53.81 111.577 -53.81 L 111.577 -53.81 L 107.277 -53.81 Z M 198.045 -23 L 197.365 -25.1 L 181.935 -25.1 L 181.245 -23 Q 180.465 -20.9 181.345 -19.51 Q 182.225 -18.12 185.055 -18.12 L 185.055 -18.12 L 187.845 -18.12 L 187.845 0 L 157.425 0 L 157.425 -18.12 L 159.425 -18.12 Q 162.935 -18.12 164.135 -19.51 Q 165.335 -20.9 166.455 -23.58 L 166.455 -23.58 L 176.465 -48.29 Q 177.535 -51.12 176.835 -52.47 Q 176.125 -53.81 172.555 -53.81 L 172.555 -53.81 L 171.535 -53.81 L 171.535 -71.92 L 221.725 -71.92 L 221.725 -53.81 L 220.755 -53.81 Q 217.135 -53.81 216.435 -52.39 Q 215.725 -50.98 216.845 -48.29 L 216.845 -48.29 L 226.855 -23.58 Q 227.445 -22.22 227.905 -21.22 Q 228.365 -20.21 229.055 -19.51 Q 229.735 -18.8 230.885 -18.46 Q 232.035 -18.12 233.835 -18.12 L 233.835 -18.12 L 235.835 -18.12 L 235.835 0 L 191.455 0 L 191.455 -18.12 L 194.145 -18.12 Q 196.925 -18.12 197.875 -19.51 Q 198.825 -20.9 198.045 -23 L 198.045 -23 Z M 189.555 -47.71 L 184.425 -32.71 L 194.825 -32.71 L 189.945 -47.71 L 189.555 -47.71 Z M 294.675 -71.92 L 326.265 -71.92 L 326.265 -53.81 Q 321.975 -53.81 320.625 -52.39 Q 319.285 -50.98 319.285 -48.29 L 319.285 -48.29 L 319.285 0 L 289.945 0 L 264.455 -39.89 L 264.455 -23 Q 264.455 -19.82 266.305 -18.97 Q 268.165 -18.12 272.465 -18.12 L 272.465 -18.12 L 272.465 0 L 238.865 0 L 238.865 -18.12 Q 243.165 -18.12 245.015 -19.26 Q 246.875 -20.41 246.875 -23.58 L 246.875 -23.58 L 246.875 -48.29 Q 246.875 -51.51 245.015 -52.66 Q 243.165 -53.81 238.865 -53.81 L 238.865 -53.81 L 238.865 -71.92 L 277.245 -71.92 L 301.655 -33.69 L 301.655 -48.29 Q 301.655 -51.51 300.315 -52.66 Q 298.975 -53.81 294.675 -53.81 L 294.675 -53.81 L 294.675 -71.92 Z M 328.226 -71.92 L 407.036 -71.92 L 407.036 -43.31 L 390.966 -43.31 Q 390.966 -46.58 390.796 -49 Q 390.626 -51.42 390.036 -52.91 Q 389.456 -54.39 388.256 -55.1 Q 387.056 -55.81 385.056 -55.81 L 385.056 -55.81 L 382.036 -55.81 L 382.036 -23.58 Q 382.036 -20.41 383.886 -19.26 Q 385.746 -18.12 390.036 -18.12 L 390.036 -18.12 L 390.036 0 L 345.266 0 L 345.266 -18.12 Q 349.556 -18.12 351.396 -19.26 Q 353.226 -20.41 353.226 -23.58 L 353.226 -23.58 L 353.226 -55.81 L 350.246 -55.81 Q 348.246 -55.81 347.046 -55.1 Q 345.846 -54.39 345.236 -52.91 Q 344.626 -51.42 344.486 -49 Q 344.336 -46.58 344.336 -43.31 L 344.336 -43.31 L 328.226 -43.31 L 328.226 -71.92 Z" data-textpath="RESTAURANT" data-text-anchor="middle" data-font-size="100" data-letterspacing="0" data-side="left" data-offset="0" data-dx="0" data-dy="96" data-xmlspace="preserve" data-href="" data-font="Ultra" data-font-src="/Content/clientfonts/ultra.woff" data-font-scale="contain" data-x="177.5" data-y="0" /></g></svg></g></g></svg>